<?xml version="1.0" standalone="no"?><svg xmlns="http://www.w3.org/2000/svg" viewBox="0 0 1440 320"><path fill="#ffd100" fill-opacity="1" d="M0,96L24,90.7C48,85,96,75,144,64C192,53,240,43,288,37.3C336,32,384,32,432,58.7C480,85,528,139,576,181.3C624,224,672,256,720,250.7C768,245,816,203,864,197.3C912,192,960,224,1008,240C1056,256,1104,256,1152,256C1200,256,1248,256,1296,250.7C1344,245,1392,235,1416,229.3L1440,224L1440,320L1416,320C1392,320,1344,320,1296,320C1248,320,1200,320,1152,320C1104,320,1056,320,1008,320C960,320,912,320,864,320C816,320,768,320,720,320C672,320,624,320,576,320C528,320,480,320,432,320C384,320,336,320,288,320C240,320,192,320,144,320C96,320,48,320,24,320L0,320Z"></path></svg>